<svg xmlns="http://www.w3.org/2000/svg" width="3840" height="2160" viewBox="0 0 1920 1080">
<defs><linearGradient id="bg" x2="1" y2="1"><stop stop-color="#040a07"/><stop offset="1" stop-color="#07152a"/></linearGradient><filter id="g"><feGaussianBlur stdDeviation="8" result="b"/><feMerge><feMergeNode in="b"/><feMergeNode in="SourceGraphic"/></feMerge></filter><style>text{font-family:Consolas,monospace}.t{fill:#d1fae5}.m{fill:#86efac}.c{fill:#67e8f9}.h{fill:#f0abfc}.l{fill:#94a3b8}.box{fill:#07140f;stroke:#34d399;stroke-width:2}.line{stroke:#34d399;stroke-width:4;fill:none;marker-end:url(#a)}</style><marker id="a" markerWidth="10" markerHeight="10" refX="9" refY="3" orient="auto"><path d="M0,0 L10,3 L0,6Z" fill="#34d399"/></marker></defs>
<rect width="1920" height="1080" fill="url(#bg)"/><g opacity=".25" stroke="#14532d"><path d="M0 120H1920M0 240H1920M0 360H1920M0 480H1920M0 600H1920M0 720H1920M0 840H1920M0 960H1920"/><path d="M120 0V1080M240 0V1080M360 0V1080M480 0V1080M600 0V1080M720 0V1080M840 0V1080M960 0V1080M1080 0V1080M1200 0V1080M1320 0V1080M1440 0V1080M1560 0V1080M1680 0V1080M1800 0V1080"/></g>
<text x="100" y="110" class="m" font-size="34">bedrock@cache:~$ explain adaptive promotion</text><text x="100" y="164" class="t" font-size="56" font-weight="700">Cold disk index → Hot prefix trie</text><text x="100" y="210" class="l" font-size="25">Repeated prefixes are promoted asynchronously while each project stays isolated.</text>
<rect x="130" y="330" width="560" height="470" rx="20" class="box"/><text x="180" y="400" class="c" font-size="38">COLD PATH</text><text x="180" y="448" class="l" font-size="23">versioned sorted corpus on disk</text><g stroke="#22d3ee" fill="none" stroke-width="4" filter="url(#g)"><ellipse cx="410" cy="575" rx="160" ry="40"/><path d="M250 575V680C250 735 570 735 570 680V575"/><ellipse cx="410" cy="680" rx="160" ry="40"/></g><text x="300" y="610" class="c" font-size="30">corpus.sorted</text><text x="315" y="715" class="c" font-size="30">corpus.idx</text>
<path d="M730 565H1110" class="line"/><text x="760" y="515" class="m" font-size="27">prefix repeats</text><text x="760" y="550" class="l" font-size="20">ledger crosses threshold</text>
<rect x="1170" y="330" width="610" height="470" rx="20" fill="#180d26" stroke="#e879f9" stroke-width="2"/><text x="1220" y="400" class="h" font-size="38">HOT PATH</text><text x="1220" y="448" class="l" font-size="23">LRU in-memory prefix tries</text><g stroke="#e879f9" stroke-width="5" fill="#3b1b5b" filter="url(#g)"><path d="M1470 510V620M1470 570L1360 680M1470 570L1580 680M1360 680L1290 750M1360 680L1430 750M1580 680L1510 750M1580 680L1650 750"/><circle cx="1470" cy="510" r="28"/><circle cx="1470" cy="620" r="28"/><circle cx="1360" cy="680" r="28"/><circle cx="1580" cy="680" r="28"/><circle cx="1290" cy="750" r="25"/><circle cx="1430" cy="750" r="25"/><circle cx="1510" cy="750" r="25"/><circle cx="1650" cy="750" r="25"/></g>
<text x="100" y="930" class="m" font-size="28">01  query enters</text><text x="485" y="930" class="m" font-size="28">02  cold scan</text><text x="880" y="930" class="m" font-size="28">03  promote prefix</text><text x="1320" y="930" class="m" font-size="28">04  hot response</text><path d="M170 970H1750" stroke="#34d399" stroke-width="2" stroke-dasharray="10 12"/>
</svg>
